#define test_width 8
#define test_height 8
static char test_bits[] = {
0xf5, 0xff, 0x0, 0xff, 0xef, 0xf7, 0xfb, 0x80
};